<?xml version="1.0" encoding="utf-8"?>
<!-- Generator: Adobe Illustrator 24.0.1, SVG Export Plug-In . SVG Version: 6.00 Build 0)  -->
<svg version="1.1" id="Layer_1" xmlns="http://www.w3.org/2000/svg" xmlns:xlink="http://www.w3.org/1999/xlink" x="0px" y="0px"
	 viewBox="0 0 171.77 171.77" style="enable-background:new 0 0 171.77 171.77;" xml:space="preserve">
<style type="text/css">
	.st0{fill:#131313;}
	.st1{fill:#F4F4F4;}
	.st2{fill:#EC2227;}
</style>
<g>
	<path class="st0" d="M85.89,171.77c47.36,0,85.89-38.53,85.89-85.89C171.77,38.53,133.24,0,85.89,0C38.53,0,0,38.53,0,85.89
		C0,133.24,38.53,171.77,85.89,171.77z"/>
	<path class="st1" d="M85.89,13.56c39.88,0,72.32,32.45,72.32,72.33c0,39.88-32.44,72.32-72.32,72.32
		c-39.88,0-72.33-32.44-72.33-72.32C13.56,46.01,46.01,13.56,85.89,13.56z"/>
</g>
<path class="st2" d="M87.73,64.63l-1.82,1.82l-1.82-1.82c-2.68-2.69-7.04-2.69-9.72,0c-2.69,2.69-2.69,7.04,0,9.72L85.91,85.9
	l11.55-11.55c2.68-2.68,2.68-7.04,0-9.72C94.77,61.94,90.42,61.94,87.73,64.63z"/>
<path d="M106.23,40.68v6.78c0,0-3.39-6.78-13.56-6.78H70.09c-0.01,0-0.01,0-0.02,0c-9.99,0-18.08,8.1-18.08,18.08v29.38
	c0,9.99,8.09,18.08,18.08,18.08v0h22.6c10.17,0,13.56-6.78,13.56-6.78v15.82c0,2.5-2.02,4.52-4.52,4.52H70.07
	c-2.5,0-4.52-2.02-4.52-4.52v-2.26H51.98v2.26c0,9.99,8.09,18.08,18.08,18.08h31.64c9.99,0,18.08-8.09,18.08-18.08V40.68H106.23z
	 M106.23,88.15c0,2.49-2.02,4.51-4.52,4.51H70.07c-2.5,0-4.52-2.02-4.52-4.52h0V58.76h0c0-2.5,2.02-4.52,4.52-4.52v0h31.64v0
	c2.5,0,4.52,2.02,4.52,4.51V88.15z"/>
</svg>
